<?xml version="1.0" encoding="UTF-8" standalone="no"?>
<!DOCTYPE svg PUBLIC "-//W3C//DTD SVG 1.1//EN" "http://www.w3.org/Graphics/SVG/1.1/DTD/svg11.dtd">
<svg width="100%" height="100%" viewBox="0 0 512 512" version="1.1" xmlns="http://www.w3.org/2000/svg" xmlns:xlink="http://www.w3.org/1999/xlink" xml:space="preserve" xmlns:serif="http://www.serif.com/" style="fill-rule:evenodd;clip-rule:evenodd;stroke-linejoin:round;stroke-miterlimit:2;">
    <g id="Calendar">
        <path d="M464,88L376,88L376,72C376,67.611 372.389,64 368,64C363.611,64 360,67.611 360,72L360,88L264,88L264,72C264,67.611 260.389,64 256,64C251.611,64 248,67.611 248,72L248,88L152,88L152,72C152,67.611 148.389,64 144,64C139.611,64 136,67.611 136,72L136,88L48,88C26.066,88.025 8.025,106.066 8,128L8,384C8.025,405.934 26.066,423.975 48,424L464,424C485.934,423.975 503.975,405.934 504,384L504,128C503.975,106.066 485.934,88.025 464,88ZM24,128C24.015,114.84 34.84,104.015 48,104L136,104L136,120C136,124.389 139.611,128 144,128C148.389,128 152,124.389 152,120L152,104L248,104L248,120C248,124.389 251.611,128 256,128C260.389,128 264,124.389 264,120L264,104L360,104L360,120C360,124.389 363.611,128 368,128C372.389,128 376,124.389 376,120L376,104L464,104C477.16,104.015 487.985,114.84 488,128L488,144L24,144L24,128ZM488,384C487.985,397.16 477.16,407.985 464,408L48,408C34.84,407.985 24.015,397.16 24,384L24,160L488,160L488,384Z" style="fill:rgb(237,231,227);fill-rule:nonzero;stroke:rgb(237,231,227);stroke-width:1px;"/>
        <path d="M56,392L128,392C132.389,392 136,388.389 136,384C136,379.611 132.389,376 128,376L56,376C51.611,376 48,379.611 48,384C48,388.389 51.611,392 56,392Z" style="fill:rgb(237,231,227);fill-rule:nonzero;stroke:rgb(237,231,227);stroke-width:1px;"/>
        <path d="M151,392L159,392C163.389,392 167,388.389 167,384C167,379.611 163.389,376 159,376L151,376C146.611,376 143,379.611 143,384C143,388.389 146.611,392 151,392Z" style="fill:rgb(237,231,227);fill-rule:nonzero;stroke:rgb(237,231,227);stroke-width:1px;"/>
    </g>
</svg>
