<?xml version="1.0" encoding="UTF-8" standalone="no"?><!DOCTYPE svg PUBLIC "-//W3C//DTD SVG 1.1//EN" "http://www.w3.org/Graphics/SVG/1.1/DTD/svg11.dtd"><svg width="100%" height="100%" viewBox="0 0 401 401" version="1.1" xmlns="http://www.w3.org/2000/svg" xmlns:xlink="http://www.w3.org/1999/xlink" xml:space="preserve" xmlns:serif="http://www.serif.com/" style="fill-rule:evenodd;clip-rule:evenodd;stroke-linecap:round;stroke-linejoin:round;stroke-miterlimit:10;"><rect id="Artboard1" x="0" y="0" width="400.023" height="400.06" style="fill:none;"/><path d="M227.02,184.439l0,187.103l54.012,-31.183l0,-62.371l54.016,-31.183l0,62.366l54.007,-31.183l0,-187.104l-54.007,31.188l0,62.367l-54.016,31.183l0,-62.367l-54.012,31.184Z" style="fill:none;fill-rule:nonzero;stroke:#dbdde3;stroke-width:6px;"/><path d="M281.03,90.885l0,62.367l54.017,31.187l0,-62.371l-54.017,-31.183Z" style="fill:none;fill-rule:nonzero;stroke:#dbdde3;stroke-width:6px;"/><path d="M389.056,90.885l-54.012,31.183l-54.016,-31.183l54.016,-31.183l54.012,31.183Z" style="fill:none;fill-rule:nonzero;stroke:#dbdde3;stroke-width:6px;"/><path d="M281.03,215.623l54.017,-31.184l-54.017,-31.183l0,62.367Z" style="fill:none;fill-rule:nonzero;stroke:#dbdde3;stroke-width:6px;"/><path d="M335.046,309.173l-54.017,-31.183l54.017,-31.183l0,62.366Z" style="fill:none;fill-rule:nonzero;stroke:#dbdde3;stroke-width:6px;"/><path d="M227.02,371.542l-54.012,-31.183l-162.041,-93.55l0,-62.371l54.017,31.183l0,-62.366l-54.017,-31.183l0,-62.372l216.053,124.738l0,187.104Z" style="fill:none;fill-rule:nonzero;stroke:#dbdde3;stroke-width:6px;"/><path d="M118.993,246.807l54.017,31.184l0,-62.367l-54.017,31.183Z" style="fill:none;fill-rule:nonzero;stroke:#dbdde3;stroke-width:6px;"/><path d="M118.993,184.439l54.017,31.183l-54.017,31.183l0,-62.366Z" style="fill:none;fill-rule:nonzero;stroke:#dbdde3;stroke-width:6px;"/><path d="M10.969,59.701l54.012,-31.183l216.048,124.737l-54.008,31.184l-216.052,-124.738Z" style="fill:none;fill-rule:nonzero;stroke:#dbdde3;stroke-width:6px;"/><path d="M10.969,184.439l54.012,-31.184l0,62.367l-54.012,-31.183Z" style="fill:none;fill-rule:nonzero;stroke:#dbdde3;stroke-width:6px;"/></svg>