<?xml version="1.0" encoding="UTF-8" standalone="no"?>
<!DOCTYPE svg PUBLIC "-//W3C//DTD SVG 1.1//EN" "http://www.w3.org/Graphics/SVG/1.1/DTD/svg11.dtd">
<svg width="100%" height="100%" viewBox="0 0 512 512" version="1.1" xmlns="http://www.w3.org/2000/svg" xmlns:xlink="http://www.w3.org/1999/xlink" xml:space="preserve" xmlns:serif="http://www.serif.com/" style="fill-rule:evenodd;clip-rule:evenodd;stroke-linejoin:round;stroke-miterlimit:2;">
    <g id="Outline">
        <path d="M430.311,349.38L326.569,330.518C322.78,329.829 320,326.498 320,322.647L320,291.487C338.123,278.561 351.906,260.437 359.52,239.52C373.951,237.175 385.654,226.406 389.189,212.22L393.75,193.98C394.298,191.796 394.577,189.552 394.58,187.3C394.548,175.889 387.391,165.64 376.689,161.68L378.939,150.68C379.867,146.132 380.547,141.538 380.975,136.916L380.975,136.87C381.336,132.99 381.526,129.105 381.526,125.24C381.542,108.729 378.254,92.381 371.855,77.16C365.63,62.29 356.604,48.754 345.27,37.29C309.64,1.299 255.6,-9.812 208.66,9.2C205.654,10.425 203.678,13.364 203.678,16.61C203.678,21 207.29,24.612 211.68,24.612C212.715,24.612 213.741,24.411 214.7,24.02C227.793,18.709 241.79,15.978 255.919,15.978C310.985,15.978 357.942,57.455 364.74,112.1C349.428,99.631 330.44,96.294 329.314,96.107L326.194,95.587L295.532,116.032C271.64,131.955 240.36,131.955 216.468,116.032L185.806,95.589L182.686,96.109C181.562,96.296 162.562,99.635 147.248,112.109C149.549,93.249 156.761,75.32 168.16,60.12C169.27,58.71 169.875,56.966 169.875,55.171C169.875,50.782 166.263,47.171 161.875,47.171C159.272,47.171 156.827,48.441 155.33,50.57C147.432,61.155 141.252,72.92 137.02,85.43C132.674,98.252 130.458,111.701 130.46,125.24C130.47,133.786 131.341,142.309 133.06,150.68L135.31,161.68C124.61,165.642 117.454,175.89 117.42,187.3C117.422,189.552 117.701,191.796 118.25,193.98L122.81,212.21C126.338,226.402 138.045,237.178 152.48,239.52C160.095,260.437 173.877,278.561 192,291.488L192,322.647C192,326.498 189.22,329.829 185.431,330.518L81.689,349.38C43.795,356.254 15.985,389.577 16,428.089L16,504C16,508.389 19.611,512 24,512C28.389,512 32,508.389 32,504L32,428.089C31.988,397.279 54.236,370.621 84.551,365.122L176.959,348.322C178.508,358.314 181.943,367.921 187.08,376.63C188.509,379.068 191.131,380.57 193.956,380.57C195.39,380.57 196.798,380.183 198.03,379.45C200.465,378.013 201.963,375.388 201.963,372.561C201.963,371.129 201.579,369.723 200.85,368.49C196.606,361.282 193.818,353.311 192.643,345.03C201.877,341.47 208.002,332.544 208,322.647L208,300.982C238.286,315.693 273.714,315.693 304,300.982L304,322.647C303.998,332.55 310.13,341.48 319.372,345.036C314.99,376.476 287.764,400.097 256.02,400L256,400C252.807,399.998 249.619,399.764 246.46,399.3C242.119,398.653 238.013,401.69 237.36,406.03C236.72,410.368 239.755,414.466 244.09,415.12C248.033,415.704 252.014,415.998 256,416C295.272,416.054 329.046,387.132 335.033,348.319L427.449,365.119C457.765,370.619 480.014,397.278 480,428.089L480,504C480,508.389 483.611,512 488,512C492.389,512 496,508.389 496,504L496,428.089C496.015,389.577 468.205,356.254 430.311,349.38ZM256.02,296L255.98,296C214.757,296.155 178.053,269.075 166.04,229.64L164.31,224.04L158.39,224C148.926,224.014 140.608,217.516 138.33,208.33L133.77,190.09C132.79,186.255 133.905,182.174 136.7,179.37C138.822,177.202 141.736,175.985 144.77,176L154.58,176L148.73,147.47C148.039,144.08 147.505,140.673 147.13,137.248C154.78,120.904 174.846,114.442 182.39,112.548L207.59,129.348C236.846,148.849 275.15,148.849 304.406,129.348L329.606,112.548C337.166,114.448 357.212,120.912 364.863,137.242C364.488,140.664 363.963,144.082 363.27,147.474L357.43,175.944L357.42,176.004L367.229,176.004C370.262,175.993 373.175,177.21 375.3,179.374C377.381,181.49 378.558,184.336 378.58,187.304C378.577,188.248 378.459,189.188 378.229,190.104L373.67,208.334C371.387,217.516 363.071,224.011 353.609,224L347.74,224L345.96,229.64C333.947,269.074 297.243,296.155 256.02,296Z" style="fill:rgb(237,231,227);fill-rule:nonzero;stroke:rgb(237,231,227);stroke-width:1px;"/>
        <path d="M88,440C83.611,440 80,443.611 80,448L80,504C80,508.389 83.611,512 88,512C92.389,512 96,508.389 96,504L96,448C96,443.611 92.389,440 88,440Z" style="fill:rgb(237,231,227);fill-rule:nonzero;"/>
        <path d="M424,440C419.611,440 416,443.611 416,448L416,504C416,508.389 419.611,512 424,512C428.389,512 432,508.389 432,504L432,448C432,443.611 428.389,440 424,440Z" style="fill:rgb(237,231,227);fill-rule:nonzero;"/>
        <path d="M220.19,389.05C218.891,388.203 217.373,387.753 215.823,387.753C211.434,387.753 207.823,391.364 207.823,395.753C207.823,398.303 209.042,400.705 211.1,402.21L211.09,402.21L211.23,402.3C212.585,403.266 214.209,403.786 215.874,403.786C220.262,403.786 223.874,400.174 223.874,395.786C223.874,393.062 222.483,390.519 220.19,389.05Z" style="fill:rgb(237,231,227);fill-rule:nonzero;"/>
        <path d="M184.07,40.56C185.811,40.565 187.506,39.996 188.89,38.94L188.97,38.88C190.921,37.366 192.065,35.03 192.065,32.56C192.065,28.171 188.454,24.56 184.065,24.56C184.063,24.56 184.062,24.56 184.06,24.56C179.673,24.563 176.065,28.173 176.065,32.56C176.065,36.949 179.676,40.56 184.065,40.56C184.067,40.56 184.068,40.56 184.07,40.56Z" style="fill:rgb(237,231,227);fill-rule:nonzero;"/>
    </g>
</svg>
