<?xml version="1.0" encoding="UTF-8" standalone="no"?>
<!DOCTYPE svg PUBLIC "-//W3C//DTD SVG 1.1//EN" "http://www.w3.org/Graphics/SVG/1.1/DTD/svg11.dtd">
<svg width="100%" height="100%" viewBox="0 0 479 479" version="1.1" xmlns="http://www.w3.org/2000/svg" xmlns:xlink="http://www.w3.org/1999/xlink" xml:space="preserve" xmlns:serif="http://www.serif.com/" style="fill-rule:evenodd;clip-rule:evenodd;stroke-linejoin:round;stroke-miterlimit:2;">
    <path d="M465.96,317.965L440.923,311.703C438.829,304.791 436.05,298.101 432.627,291.742L445.913,269.602C447.8,266.46 447.305,262.436 444.716,259.844L419.796,234.893C417.204,232.3 413.18,231.809 410.038,233.696L387.898,246.982C385.024,245.442 382.069,244.019 379.059,242.725C375.41,241.177 371.679,239.828 367.882,238.686L361.621,213.645C360.736,210.089 357.543,207.594 353.878,207.594L318.658,207.594C314.993,207.594 311.8,210.089 310.911,213.645L304.654,238.686C297.738,240.779 291.052,243.559 284.693,246.982L262.553,233.696C259.41,231.809 255.387,232.3 252.794,234.893L227.843,259.813C225.251,262.405 224.759,266.429 226.646,269.571L239.933,291.711C236.506,298.07 233.73,304.756 231.636,311.672L206.596,317.93C203.04,318.818 200.545,322.011 200.545,325.676L200.545,360.92C200.545,364.584 203.04,367.777 206.596,368.662L231.636,374.924C233.73,381.836 236.506,388.522 239.933,394.885L226.646,417.025C224.759,420.167 225.251,424.191 227.843,426.783L252.763,451.703C255.356,454.292 259.379,454.787 262.518,452.9L284.658,439.614C291.02,443.037 297.707,445.816 304.619,447.91L310.88,472.947C311.769,476.502 314.962,478.998 318.627,479.001L353.87,479.001C357.535,478.998 360.728,476.502 361.613,472.947L367.874,447.91C374.786,445.816 381.473,443.037 387.835,439.614L409.975,452.9C413.118,454.787 417.141,454.292 419.734,451.703L444.65,426.783C447.242,424.191 447.738,420.167 445.851,417.025L432.564,394.885C435.987,388.522 438.767,381.836 440.86,374.924L465.897,368.662C469.453,367.777 471.948,364.584 471.948,360.92L471.948,325.707C471.956,322.062 469.492,318.873 465.96,317.965ZM456.046,354.713L432.549,360.592C429.691,361.302 427.461,363.52 426.736,366.374C424.537,375.025 421.102,383.313 416.529,390.978C415.024,393.505 415.024,396.651 416.529,399.173L429.001,419.933L412.931,436.07L392.17,423.598C389.648,422.089 386.502,422.089 383.979,423.598C376.311,428.167 368.022,431.606 359.371,433.801C356.517,434.526 354.299,436.76 353.59,439.614L347.664,463.095L324.892,463.095L319.016,439.598C318.307,436.744 316.085,434.51 313.235,433.785C304.584,431.586 296.295,428.152 288.627,423.579C286.104,422.074 282.958,422.074 280.436,423.579L259.675,436.05L243.539,419.98L256.011,399.22C257.519,396.697 257.519,393.551 256.011,391.029C251.442,383.36 248.003,375.072 245.808,366.421C245.083,363.571 242.849,361.349 239.995,360.639L216.514,354.713L216.514,331.945L240.011,326.066C242.865,325.356 245.098,323.138 245.824,320.284C248.019,311.633 251.457,303.345 256.026,295.68C257.535,293.154 257.535,290.008 256.026,287.485L243.555,266.725L259.629,250.588L280.389,263.06C282.911,264.569 286.057,264.569 288.58,263.06C296.248,258.491 304.537,255.052 313.188,252.857C316.038,252.132 318.26,249.898 318.97,247.045L324.892,223.563L347.664,223.563L353.543,247.06C354.252,249.914 356.471,252.148 359.321,252.873C367.972,255.064 376.26,258.499 383.921,263.072C386.447,264.581 389.597,264.581 392.124,263.072L412.88,250.6L429.016,266.678L416.545,287.438C415.04,289.961 415.04,293.107 416.545,295.629C421.118,303.298 424.552,311.586 426.751,320.238C427.476,323.087 429.706,325.31 432.564,326.019L456.046,331.945L456.046,354.713Z" style="fill:rgb(237,231,227);fill-rule:nonzero;stroke:rgb(237,231,227);stroke-width:1px;"/>
    <path d="M336.28,279.454C301.001,279.454 272.404,308.05 272.404,343.329C272.404,378.608 301.001,407.204 336.28,407.204C371.554,407.204 400.155,378.608 400.155,343.329C400.116,308.07 371.539,279.493 336.28,279.454ZM336.28,391.235C309.82,391.235 288.373,369.785 288.373,343.329C288.373,316.873 309.82,295.423 336.28,295.423C362.736,295.423 384.186,316.873 384.186,343.329C384.159,369.777 362.724,391.208 336.28,391.235Z" style="fill:rgb(237,231,227);fill-rule:nonzero;stroke:rgb(237,231,227);stroke-width:1px;"/>
    <rect x="376.202" y="95.813" width="15.969" height="127.75" style="fill:rgb(237,231,227);fill-rule:nonzero;stroke:rgb(237,231,227);stroke-width:1px;"/>
    <path d="M40.857,407.204L40.857,439.142C40.857,443.551 44.432,447.126 48.841,447.126L216.514,447.126L216.514,431.157L56.826,431.157L56.826,407.204L152.638,407.204C153.874,407.216 155.095,406.943 156.206,406.405L188.143,390.436C190.853,389.087 192.568,386.319 192.568,383.29C192.568,380.265 190.853,377.497 188.143,376.144L156.206,360.175C155.102,359.61 153.878,359.31 152.638,359.298L56.826,359.298L56.826,87.828L360.233,87.828C377.87,87.828 392.17,73.528 392.17,55.891L392.17,39.922C392.17,35.513 388.595,31.938 384.186,31.938L360.233,31.938L360.233,47.906L376.202,47.906L376.202,55.891C376.202,64.709 369.052,71.86 360.233,71.86C351.414,71.86 344.264,64.709 344.264,55.891L344.264,31.938C344.264,23.119 351.414,15.969 360.233,15.969L392.17,15.969C400.989,15.969 408.139,23.119 408.139,31.938L408.139,215.579L424.108,215.579L424.108,31.938C424.108,14.3 409.808,0 392.17,0L40.857,0C23.216,0 8.919,14.3 8.919,31.938L8.919,55.891C8.919,73.528 23.216,87.828 40.857,87.828L40.857,359.298L32.873,359.298C19.644,359.298 8.919,370.023 8.919,383.251C8.919,396.479 19.644,407.204 32.873,407.204L40.857,407.204ZM24.888,55.891L24.888,31.938C24.888,23.119 32.038,15.969 40.857,15.969L332.732,15.969C329.859,20.803 328.326,26.316 328.295,31.938L328.295,55.891C328.326,61.513 329.859,67.025 332.732,71.86L40.857,71.86C32.038,71.86 24.888,64.709 24.888,55.891ZM166.72,383.251L150.752,391.235L144.654,391.235L144.654,375.267L150.752,375.267L166.72,383.251ZM24.888,383.251C24.888,378.842 28.463,375.267 32.873,375.267L128.685,375.267L128.685,391.235L32.873,391.235C28.463,391.235 24.888,387.66 24.888,383.251Z" style="fill:rgb(237,231,227);fill-rule:nonzero;stroke:rgb(237,231,227);stroke-width:1px;"/>
    <rect x="8.919" y="119.766" width="15.969" height="159.688" style="fill:rgb(237,231,227);fill-rule:nonzero;stroke:rgb(237,231,227);stroke-width:1px;"/>
    <path d="M320.311,127.75L320.311,111.782L216.514,111.782C214.397,111.782 212.366,112.624 210.868,114.121L196.28,128.709C161.403,103.146 113.087,106.877 82.549,137.493C79.434,140.608 79.434,145.665 82.549,148.78L139.009,205.24C140.502,206.741 142.533,207.59 144.654,207.594L224.498,207.594C228.907,207.594 232.482,204.019 232.482,199.61C232.475,177.134 223.82,155.524 208.303,139.263L219.82,127.75L320.311,127.75ZM216.065,191.626L147.96,191.626L99.796,143.462C124.342,123.809 158.837,122.468 184.837,140.152L162.962,162.027L174.252,173.318L197.056,150.514C207.675,161.801 214.346,176.226 216.065,191.626Z" style="fill:rgb(237,231,227);fill-rule:nonzero;stroke:rgb(237,231,227);stroke-width:1px;"/>
    <rect x="336.28" y="111.782" width="15.969" height="15.969" style="fill:rgb(237,231,227);fill-rule:nonzero;stroke:rgb(237,231,227);stroke-width:1px;"/>
    <rect x="96.748" y="231.548" width="15.969" height="15.969" style="fill:rgb(237,231,227);fill-rule:nonzero;stroke:rgb(237,231,227);stroke-width:1px;"/>
    <rect x="128.685" y="231.548" width="79.844" height="15.969" style="fill:rgb(237,231,227);fill-rule:nonzero;stroke:rgb(237,231,227);stroke-width:1px;"/>
    <rect x="80.779" y="263.485" width="127.75" height="15.969" style="fill:rgb(237,231,227);fill-rule:nonzero;stroke:rgb(237,231,227);stroke-width:1px;"/>
    <rect x="256.436" y="143.719" width="15.969" height="15.969" style="fill:rgb(237,231,227);fill-rule:nonzero;stroke:rgb(237,231,227);stroke-width:1px;"/>
    <rect x="288.373" y="143.719" width="63.875" height="15.969" style="fill:rgb(237,231,227);fill-rule:nonzero;stroke:rgb(237,231,227);stroke-width:1px;"/>
    <rect x="256.436" y="175.657" width="95.813" height="15.969" style="fill:rgb(237,231,227);fill-rule:nonzero;stroke:rgb(237,231,227);stroke-width:1px;"/>
    <rect x="80.779" y="295.423" width="103.797" height="15.969" style="fill:rgb(237,231,227);fill-rule:nonzero;stroke:rgb(237,231,227);stroke-width:1px;"/>
</svg>
